# xmcd
#
# Track frame offsets: 
#        182
#        20282
#        35417
#        54922
#        75432
#        92517
#        107202
#        122485
#        136780
#        153152
#        170820
#        187885
#        201835
#        219515
#        234247
#        256200
#        277012
#        295652
#        309317
#        325107
#
# Disc length: 4557 seconds
#
# Revision: 11
# Processed by: cddbd v1.5.2PL0 Copyright (c) Steve Scherf et al.
# Submitted via: ExactAudioCopy v0.95b4
#
DISCID=0111cb14
DTITLE=Various Artist - Nightfever [CD2]
DYEAR=1995
DGENRE=Disco
TTITLE0=Sylvester - (You Make Me Feel) Mighty Real
TTITLE1=The Gap Band - Oops Up Side Your Head
TTITLE2=Shalamar - I Can Make You Feel Good
TTITLE3=Rufus and Chaka Khan - Ain't Nobody
TTITLE4=Jocelyn Brown - Somebody Else's Guy
TTITLE5=Isaac Hayes - Theme From Shaft
TTITLE6=The Whispers - And The Beat Goes On
TTITLE7=Wild Cherry - Play That Funky Music
TTITLE8=Emotions - Best Of My Love
TTITLE9=Harold Melvin - Don't Leave Me This Way
TTITLE10=Odyssey - Use It Up and Wear It Out
TTITLE11=Hues Corporation - Rock The Boat
TTITLE12=Pointer Sisters - Jump (For My Love)
TTITLE13=The Trammps - Disco Inferno
TTITLE14=Crown Heights Affair - You Gave Me Love
TTITLE15=Tom Browne - Funkin' For Jamaica
TTITLE16=Evelyn "Champagne" King - Shame
TTITLE17=Sly and The Family Stone - Family Affair
TTITLE18=Jacksons - Blame It On The Boogie
TTITLE19=Village People - Y.M.C.A.
EXTD=YEAR: 1997
EXTT0=SYLVESTER
EXTT1=THE GAP BAND
EXTT2=SHALAMAR
EXTT3=RUFUS
EXTT4=JOCELYN BROWN
EXTT5=ISAAC HAYES
EXTT6=THE WHISPERS
EXTT7=WILD CHERRY
EXTT8=EMOTIONS
EXTT9=HARLOD MELVIN
EXTT10=ODYSSEY
EXTT11=HUES CORPORATIN
EXTT12=POINTER SISTERS
EXTT13=THE TRAMMPS
EXTT14=CROWN HEIGHTS AFFAIR
EXTT15=TOM BROWN
EXTT16=EVELYN CHAMPEGNE KING
EXTT17=SLY and THE FAMILY STONE
EXTT18=JACKSONS
EXTT19=VILLAGE PEOPLE
PLAYORDER=
